<?xml version="1.0" encoding="UTF-8"?>
<svg id="Blobs" xmlns="http://www.w3.org/2000/svg" viewBox="0 0 1600 900">
  <defs>
    <style>
      .cls-1 {
        fill: #231f20;
        opacity: .05;
      }
    </style>
  </defs>
  <path class="cls-1" d="m7.39,251.42c20.73,2.73,52.07-9.17,69.09-29.99,14.53-17.78,23.66-48.21,32.6-78.02,1.91-6.36,1.48-5.43,2.1-7.13,12.5-34.36,50.22-39.59,76.04-59.43,25.52-19.6,44.32-56,40.84-79.09C218.06-68.7,4.19-147.3-76.34-66.09-159.79,18.08-67.91,241.51,7.39,251.42Z"/>
  <path class="cls-1" d="m220.06,555.33c-21.54,38.11-.13,85.99,3.16,93.07,2.72,5.86,30,62.51,88.51,82.17,36.49,12.26,65.89,3.67,87.42-2.63,39-11.4,66.31-35.64,88.44-55.29,10.64-9.45,14.24-13.96,28.13-25.3,30.81-25.15,39.4-24.41,50.88-35.99,24.99-25.21,30.07-74.92,5.44-113.6-11.74-18.45-37.09-45.15-64.92-48.14-2.83-.3-7.44-.55-19.19,1.76-33.56,6.59-55.96,20.57-62.16,24.21-23.53,13.84-28.85,7.54-86.86,24.32-69.78,20.19-104.68,30.28-118.87,55.4Z"/>
  <path class="cls-1" d="m332.43-4.55c-1.35,4.33-4.47,17.49,21.11,61.47,16.45,28.27,24.67,42.41,38.18,53.02,4.51,3.54,35.57,27.24,73.25,21.89,9.42-1.34,17.21-2.44,22.5-8.73,11.52-13.7-4.54-33.34-2.68-61.26,2.53-38.03,35.23-45.38,31.24-66.38-6.52-34.35-102.29-58.5-158.43-26.48-7.47,4.26-20.67,12.03-25.16,26.48Z"/>
  <path class="cls-1" d="m662.25-82.39c-14.34,11.56-19.19,25.49-19.19,25.49-4.56,13.11-2.58,25.77.98,37.95,3.16,10.82,13.99,43.19,72.22,103.04,23.9,24.57,32.94,30.28,41.09,34.29,8.43,4.14,32.14,15.4,62.29,10.4,30.16-4.99,53.82-24.38,66.24-43.37,31.44-48.05,12.6-126.76-36.75-168.47-68.47-57.86-164.02-17.77-186.89.66Z"/>
  <path class="cls-1" d="m1021.53-15.18c-.09,7.5,7.01,11.15,19.2,27.28,7.96,10.53,14.54,21.68,18.14,29.58,9.68,21.26,4.17,33.07,7.5,59.32,1.01,7.93,4.9,33.59,17.44,54.69,0,0,40.45,68.06,157.57,58.78,2.77-.22,5.32-.62,8.15-1.58,6.65-2.25,18.55-8.84,32.96-44.99,5.92-14.84,4.89-16.18,9.3-27.59,10.72-27.72,23.96-38.34,30.65-50.41,17.22-31.04-3.83-80.65-22.57-105.83-63.82-85.78-213.55-39.74-246.06-26.48-6.63,2.7-32.12,13.1-32.29,27.23Z"/>
  <path class="cls-1" d="m1354.16-14.57c.65,4.16,2.85,6.63,8.87,13.13,35.13,37.88,52.7,56.82,62.08,63.81,60.11,44.73,106.82,29.1,195.48,51.11,3,.74,10.16,2.55,18.12,0,23.18-7.44,31.22-44.9,32.66-57.72,6.61-59.05-65.8-143.3-151.73-152.73-82.76-9.09-170.2,52.09-165.49,82.41Z"/>
  <path class="cls-1" d="m1620.6,196.86c-17.08-23.93-38.24-34.42-61.23-45.82-17.9-8.88-127.13-60.49-190.38-9.68-20.82,16.72-40.36,47.52-32.48,70.28,6.94,20.05,30.02,19.04,67.52,42.27,45.35,28.1,41.4,48.04,78.26,73.31,32.48,22.28,100.09,51.04,138.32,21.47,38.36-29.67,32.29-106.6,0-151.83Z"/>
  <path class="cls-1" d="m1574.63,531.91c-7.39-1.01-24.6-.81-38,0-37.47,2.25-65.58,3.94-91.43,21.33-1.88,1.26-46.8,32.34-44.49,72.72.59,10.33,3.84,13.72,19.67,44.64,21.59,42.18,32.39,63.27,32.55,71.2.68,33.16-29.19,39.32-47.7,98.35-6.58,20.98-10.15,32.38-7.91,43.94,11.82,61,184.43,119.89,259.26,62,108.45-83.91-1.38-403.17-81.95-414.19Z"/>
  <path class="cls-1" d="m1260.03,897.16c2.97-12.33,1.57-14.65,3.64-26.11,7.5-41.6,33.01-50.26,43.14-80.93,10.49-31.77-1.01-70.59-21.98-94.42-27.02-30.7-66.58-32.92-91.69-34.33-65.85-3.69-113.83,28.62-159.2,59.18-38.38,25.85-63.14,43.06-63.06,69.07.08,23.65,40.08,54.13,47.27,60.09,1.49,1.24,3.96,3.22,7.46,6.34,0,0,16.74,14.9,29.36,31.98,18.45,24.96,9.7,46.04,22.59,65.17,24.44,36.25,111.05,42.31,151.22,2.91,21.9-21.48,30.87-57.33,31.26-58.95Z"/>
  <path class="cls-1" d="m897.87,857.45c-3.5-9.37-10.07-15.95-23.2-29.13-14.45-14.5-43.39-43.54-81.58-42.71-12.51.27-21.64,3.65-29.69,6.71-30.01,11.41-78.12,42.8-81.71,83.48-4.96,56.11,75.35,123.23,142.31,103.94,53.07-15.29,88.83-82.28,73.87-122.29Z"/>
  <path class="cls-1" d="m534.31,897.82c.46-19.31-10.29-34.31-29.68-61.36-17.45-24.34-32.38-45.18-58.86-50.49-14.54-2.91-39.07-2.45-52.25,11.99-8.28,9.07-5.6,16.56-15.55,25.47-11.47,10.26-22.12,6.68-34.07,12.26-21.36,9.97-31.13,41.86-30.25,62.67,1.9,44.95,55.43,84.42,106.69,85.77,56.48,1.5,112.94-43.19,113.97-86.31Z"/>
  <path class="cls-1" d="m230.74,913.03c0-7.44-11.32-24.31-33.98-58.05-28.61-42.61-44.06-57.12-48.76-61.42-16.41-15.03-33.84-26.49-44.27-31.67-61.23-30.44-192.06.96-212.67,85.55-14.65,60.15,31.8,125.17,83.15,152.71,106.31,57,256.45-34.4,256.52-87.11Z"/>
  <path class="cls-1" d="m-38.75,425.06c32.64-15.64,37.9-7.83,62.81-24.63,26.23-17.68,32.38-34.42,69.95-60.51,25.15-17.46,33.78-17.88,37.42-17.82,26.68.43,48.85,30.59,57.39,52.29,23.31,59.26-26.91,127.01-40.85,145.81-47.95,64.68-152.17,143.77-223.08,105.85-38.23-20.44-63.73-73.27-53.47-115.85,11.46-47.57,65.38-73.41,89.82-85.13Z"/>
  <path class="cls-1" d="m585,283.3c27.93-34.84,26.91-32.54,31.17-38.81,18.67-27.46,13.68-35.59,28.75-51.65,3.11-3.32,21.74-23.18,44.9-24.76,39.7-2.71,70.46,49.8,81.22,68.18,4.3,7.34,52.05,91.58,15.45,162.3-6.08,11.75-16.82,32.49-35.3,35.53-23.65,3.89-31.21-25.91-74.8-46.99-37.61-18.18-54.92-7.09-87.63-31.62-9.97-7.48-26.21-19.99-25.99-36.39.1-7.69,3.77-12.73,22.26-35.79Z"/>
  <path class="cls-1" d="m396.92,230.84c-37.08-16.83-33.74-53.48-65.51-61.5-24.65-6.23-48.14,10.42-57.03,16.71-34.87,24.71-46.67,69.31-43,104.45,3.69,35.29,22.73,58.7,32.84,70.79,11.04,13.2,40.04,47.88,89.74,52.32,48.04,4.29,82.55-22.6,93.76-32.46,10.18-8.96,45.92-40.41,42.02-84.53-.69-7.77-4.38-36.06-26.15-52.1-22.5-16.58-37.92-.63-66.68-13.68Z"/>
  <path class="cls-1" d="m668.68,620.29c-3.31-15.44-.9-28.56-.24-31.88,1.37-6.79,7.85-34.24,29.05-44.78,12.11-6.02,22.09-3.08,31.5-3.08,52.94,0,66.84-93.03,138.16-117.11,7.4-2.5,41.33-13,71.98,3.32,31.35,16.69,40.72,51.58,45.85,70.7,1.67,6.21,20.35,79.5-18.04,117.12-15.63,15.32-24.57,8.88-48.06,28.48-28.5,23.78-24.44,40.83-43.83,57.07-36.36,30.43-100.79,12.49-132.18-2.2-8.65-4.05-63.98-29.96-74.2-77.63Z"/>
  <path class="cls-1" d="m1069.81,376.11c.25,27.2,23.76,33.19,36.57,64.08,15.85,38.22-6.4,62.15,11.59,79.05,10.57,9.93,26.22,9.13,55.95,7.62,31.96-1.63,36.88-7.9,60.73-10.06,51.42-4.65,63.45,21.39,94.92,11.16,28.11-9.14,46.24-38.95,51.71-63.62,10.48-47.29-23.16-86.65-31.9-96.88-72.19-84.47-236.89-73.92-270.04-21.81-9.66,15.18-9.52,30.46-9.52,30.46Z"/>
  <path class="cls-1" d="m863.43,201.37c-17.71,36.05,14.64,103.16,66.55,112.44,25.89,4.63,57.05-5.05,75.73-29.83,20.19-26.78,20.35-63.97,4.59-87.2-31.33-46.19-126-37.86-146.86,4.59Z"/>
</svg>