<?xml version="1.0" encoding="UTF-8"?>
<svg id="Checkerboard" xmlns="http://www.w3.org/2000/svg" viewBox="0 0 1600 900">
  <defs>
    <style>
      .cls-1 {
        fill: #231f20;
        opacity: .05;
      }
    </style>
  </defs>
  <rect class="cls-1" width="100" height="100"/>
  <rect class="cls-1" x="100" y="100" width="100" height="100"/>
  <rect class="cls-1" y="200" width="100" height="100"/>
  <rect class="cls-1" x="100" y="300" width="100" height="100"/>
  <rect class="cls-1" x="200" y="400" width="100" height="100"/>
  <rect class="cls-1" x="100" y="500" width="100" height="100"/>
  <rect class="cls-1" y="400" width="100" height="100"/>
  <rect class="cls-1" y="600" width="100" height="100"/>
  <rect class="cls-1" x="100" y="700" width="100" height="100"/>
  <rect class="cls-1" y="800" width="100" height="100"/>
  <rect class="cls-1" x="200" width="100" height="100"/>
  <rect class="cls-1" x="200" y="200" width="100" height="100"/>
  <rect class="cls-1" x="200" y="600" width="100" height="100"/>
  <rect class="cls-1" x="200" y="800" width="100" height="100"/>
  <rect class="cls-1" x="300" y="100" width="100" height="100"/>
  <rect class="cls-1" x="300" y="300" width="100" height="100"/>
  <rect class="cls-1" x="300" y="500" width="100" height="100"/>
  <rect class="cls-1" x="300" y="700" width="100" height="100"/>
  <rect class="cls-1" x="400" width="100" height="100"/>
  <rect class="cls-1" x="500" y="100" width="100" height="100"/>
  <rect class="cls-1" x="400" y="200" width="100" height="100"/>
  <rect class="cls-1" x="500" y="300" width="100" height="100"/>
  <rect class="cls-1" x="600" y="400" width="100" height="100"/>
  <rect class="cls-1" x="500" y="500" width="100" height="100"/>
  <rect class="cls-1" x="400" y="400" width="100" height="100"/>
  <rect class="cls-1" x="400" y="600" width="100" height="100"/>
  <rect class="cls-1" x="500" y="700" width="100" height="100"/>
  <rect class="cls-1" x="400" y="800" width="100" height="100"/>
  <rect class="cls-1" x="600" width="100" height="100"/>
  <rect class="cls-1" x="600" y="200" width="100" height="100"/>
  <rect class="cls-1" x="600" y="600" width="100" height="100"/>
  <rect class="cls-1" x="600" y="800" width="100" height="100"/>
  <rect class="cls-1" x="700" y="100" width="100" height="100"/>
  <rect class="cls-1" x="700" y="300" width="100" height="100"/>
  <rect class="cls-1" x="700" y="500" width="100" height="100"/>
  <rect class="cls-1" x="700" y="700" width="100" height="100"/>
  <rect class="cls-1" x="800" width="100" height="100"/>
  <rect class="cls-1" x="900" y="100" width="100" height="100"/>
  <rect class="cls-1" x="800" y="200" width="100" height="100"/>
  <rect class="cls-1" x="900" y="300" width="100" height="100"/>
  <rect class="cls-1" x="1000" y="400" width="100" height="100"/>
  <rect class="cls-1" x="900" y="500" width="100" height="100"/>
  <rect class="cls-1" x="800" y="400" width="100" height="100"/>
  <rect class="cls-1" x="800" y="600" width="100" height="100"/>
  <rect class="cls-1" x="900" y="700" width="100" height="100"/>
  <rect class="cls-1" x="800" y="800" width="100" height="100"/>
  <rect class="cls-1" x="1000" width="100" height="100"/>
  <rect class="cls-1" x="1000" y="200" width="100" height="100"/>
  <rect class="cls-1" x="1000" y="600" width="100" height="100"/>
  <rect class="cls-1" x="1000" y="800" width="100" height="100"/>
  <rect class="cls-1" x="1100" y="100" width="100" height="100"/>
  <rect class="cls-1" x="1100" y="300" width="100" height="100"/>
  <rect class="cls-1" x="1100" y="500" width="100" height="100"/>
  <rect class="cls-1" x="1100" y="700" width="100" height="100"/>
  <rect class="cls-1" x="1200" width="100" height="100"/>
  <rect class="cls-1" x="1300" y="100" width="100" height="100"/>
  <rect class="cls-1" x="1200" y="200" width="100" height="100"/>
  <rect class="cls-1" x="1300" y="300" width="100" height="100"/>
  <rect class="cls-1" x="1400" y="400" width="100" height="100"/>
  <rect class="cls-1" x="1300" y="500" width="100" height="100"/>
  <rect class="cls-1" x="1200" y="400" width="100" height="100"/>
  <rect class="cls-1" x="1200" y="600" width="100" height="100"/>
  <rect class="cls-1" x="1300" y="700" width="100" height="100"/>
  <rect class="cls-1" x="1200" y="800" width="100" height="100"/>
  <rect class="cls-1" x="1400" width="100" height="100"/>
  <rect class="cls-1" x="1400" y="200" width="100" height="100"/>
  <rect class="cls-1" x="1400" y="600" width="100" height="100"/>
  <rect class="cls-1" x="1400" y="800" width="100" height="100"/>
  <rect class="cls-1" x="1500" y="100" width="100" height="100"/>
  <rect class="cls-1" x="1500" y="300" width="100" height="100"/>
  <rect class="cls-1" x="1500" y="500" width="100" height="100"/>
  <rect class="cls-1" x="1500" y="700" width="100" height="100"/>
</svg>