<?xml version="1.0" encoding="UTF-8"?>
<svg id="Polka" xmlns="http://www.w3.org/2000/svg" viewBox="0 0 1600 900">
  <defs>
    <style>
      .cls-1 {
        fill: #231f20;
        opacity: .05;
      }
    </style>
  </defs>
  <circle class="cls-1" r="25"/>
  <circle class="cls-1" cy="100" r="25"/>
  <circle class="cls-1" cy="300" r="25"/>
  <circle class="cls-1" cx="-.02" cy="200" r="25"/>
  <circle class="cls-1" cy="400" r="25"/>
  <circle class="cls-1" cy="500" r="25"/>
  <circle class="cls-1" cy="600" r="25"/>
  <circle class="cls-1" cy="700" r="25"/>
  <circle class="cls-1" cy="800" r="25"/>
  <circle class="cls-1" cy="900" r="25"/>
  <circle class="cls-1" cx="50.02" cy="50" r="25"/>
  <circle class="cls-1" cx="50" cy="150" r="25"/>
  <circle class="cls-1" cx="50" cy="250" r="25"/>
  <circle class="cls-1" cx="50.02" cy="450" r="25"/>
  <circle class="cls-1" cx="50.02" cy="550" r="25"/>
  <circle class="cls-1" cx="50.02" cy="350" r="25"/>
  <circle class="cls-1" cx="50.02" cy="750" r="25"/>
  <circle class="cls-1" cx="50.02" cy="850" r="25"/>
  <circle class="cls-1" cx="50.02" cy="650" r="25"/>
  <circle class="cls-1" cx="100.06" r="25"/>
  <circle class="cls-1" cx="100.06" cy="100" r="25"/>
  <circle class="cls-1" cx="100.06" cy="300" r="25"/>
  <circle class="cls-1" cx="100.04" cy="200" r="25"/>
  <circle class="cls-1" cx="100.06" cy="400" r="25"/>
  <circle class="cls-1" cx="100.06" cy="500" r="25"/>
  <circle class="cls-1" cx="100.06" cy="600" r="25"/>
  <circle class="cls-1" cx="100.06" cy="700" r="25"/>
  <circle class="cls-1" cx="100.06" cy="800" r="25"/>
  <circle class="cls-1" cx="100.06" cy="900" r="25"/>
  <circle class="cls-1" cx="150.06" cy="50" r="25"/>
  <circle class="cls-1" cx="150.04" cy="150" r="25"/>
  <circle class="cls-1" cx="150.04" cy="250" r="25"/>
  <circle class="cls-1" cx="150.06" cy="450" r="25"/>
  <circle class="cls-1" cx="150.06" cy="550" r="25"/>
  <circle class="cls-1" cx="150.06" cy="350" r="25"/>
  <circle class="cls-1" cx="150.06" cy="750" r="25"/>
  <circle class="cls-1" cx="150.06" cy="850" r="25"/>
  <circle class="cls-1" cx="150.06" cy="650" r="25"/>
  <circle class="cls-1" cx="200.08" r="25"/>
  <circle class="cls-1" cx="200.08" cy="100" r="25"/>
  <circle class="cls-1" cx="200.08" cy="300" r="25"/>
  <circle class="cls-1" cx="200.06" cy="200" r="25"/>
  <circle class="cls-1" cx="200.08" cy="400" r="25"/>
  <circle class="cls-1" cx="200.08" cy="500" r="25"/>
  <circle class="cls-1" cx="200.08" cy="600" r="25"/>
  <circle class="cls-1" cx="200.08" cy="700" r="25"/>
  <circle class="cls-1" cx="200.08" cy="800" r="25"/>
  <circle class="cls-1" cx="200.08" cy="900" r="25"/>
  <circle class="cls-1" cx="250.12" cy="50" r="25"/>
  <circle class="cls-1" cx="250.1" cy="150" r="25"/>
  <circle class="cls-1" cx="250.1" cy="250" r="25"/>
  <circle class="cls-1" cx="250.12" cy="450" r="25"/>
  <circle class="cls-1" cx="250.12" cy="550" r="25"/>
  <circle class="cls-1" cx="250.12" cy="350" r="25"/>
  <circle class="cls-1" cx="250.12" cy="750" r="25"/>
  <circle class="cls-1" cx="250.12" cy="850" r="25"/>
  <circle class="cls-1" cx="250.12" cy="650" r="25"/>
  <circle class="cls-1" cx="300" r="25"/>
  <circle class="cls-1" cx="300" cy="100" r="25"/>
  <circle class="cls-1" cx="300" cy="300" r="25"/>
  <circle class="cls-1" cx="299.98" cy="200" r="25"/>
  <circle class="cls-1" cx="300" cy="400" r="25"/>
  <circle class="cls-1" cx="300" cy="500" r="25"/>
  <circle class="cls-1" cx="300" cy="600" r="25"/>
  <circle class="cls-1" cx="300" cy="700" r="25"/>
  <circle class="cls-1" cx="300" cy="800" r="25"/>
  <circle class="cls-1" cx="300" cy="900" r="25"/>
  <circle class="cls-1" cx="350.02" cy="50" r="25"/>
  <circle class="cls-1" cx="350" cy="150" r="25"/>
  <circle class="cls-1" cx="350" cy="250" r="25"/>
  <circle class="cls-1" cx="350.02" cy="450" r="25"/>
  <circle class="cls-1" cx="350.02" cy="550" r="25"/>
  <circle class="cls-1" cx="350.02" cy="350" r="25"/>
  <circle class="cls-1" cx="350.02" cy="750" r="25"/>
  <circle class="cls-1" cx="350.02" cy="850" r="25"/>
  <circle class="cls-1" cx="350.02" cy="650" r="25"/>
  <circle class="cls-1" cx="400.06" r="25"/>
  <circle class="cls-1" cx="400.06" cy="100" r="25"/>
  <circle class="cls-1" cx="400.06" cy="300" r="25"/>
  <circle class="cls-1" cx="400.04" cy="200" r="25"/>
  <circle class="cls-1" cx="400.06" cy="400" r="25"/>
  <circle class="cls-1" cx="400.06" cy="500" r="25"/>
  <circle class="cls-1" cx="400.06" cy="600" r="25"/>
  <circle class="cls-1" cx="400.06" cy="700" r="25"/>
  <circle class="cls-1" cx="400.06" cy="800" r="25"/>
  <circle class="cls-1" cx="400.06" cy="900" r="25"/>
  <circle class="cls-1" cx="450.06" cy="50" r="25"/>
  <circle class="cls-1" cx="450.04" cy="150" r="25"/>
  <circle class="cls-1" cx="450.04" cy="250" r="25"/>
  <circle class="cls-1" cx="450.06" cy="450" r="25"/>
  <circle class="cls-1" cx="450.06" cy="550" r="25"/>
  <circle class="cls-1" cx="450.06" cy="350" r="25"/>
  <circle class="cls-1" cx="450.06" cy="750" r="25"/>
  <circle class="cls-1" cx="450.06" cy="850" r="25"/>
  <circle class="cls-1" cx="450.06" cy="650" r="25"/>
  <circle class="cls-1" cx="500.08" r="25"/>
  <circle class="cls-1" cx="500.08" cy="100" r="25"/>
  <circle class="cls-1" cx="500.08" cy="300" r="25"/>
  <circle class="cls-1" cx="500.06" cy="200" r="25"/>
  <circle class="cls-1" cx="500.08" cy="400" r="25"/>
  <circle class="cls-1" cx="500.08" cy="500" r="25"/>
  <circle class="cls-1" cx="500.08" cy="600" r="25"/>
  <circle class="cls-1" cx="500.08" cy="700" r="25"/>
  <circle class="cls-1" cx="500.08" cy="800" r="25"/>
  <circle class="cls-1" cx="500.08" cy="900" r="25"/>
  <circle class="cls-1" cx="550.12" cy="50" r="25"/>
  <circle class="cls-1" cx="550.1" cy="150" r="25"/>
  <circle class="cls-1" cx="550.1" cy="250" r="25"/>
  <circle class="cls-1" cx="550.12" cy="450" r="25"/>
  <circle class="cls-1" cx="550.12" cy="550" r="25"/>
  <circle class="cls-1" cx="550.12" cy="350" r="25"/>
  <circle class="cls-1" cx="550.12" cy="750" r="25"/>
  <circle class="cls-1" cx="550.12" cy="850" r="25"/>
  <circle class="cls-1" cx="550.12" cy="650" r="25"/>
  <circle class="cls-1" cx="600.07" cy="0" r="25"/>
  <circle class="cls-1" cx="600.07" cy="100" r="25"/>
  <circle class="cls-1" cx="600.07" cy="300" r="25"/>
  <circle class="cls-1" cx="600.05" cy="200" r="25"/>
  <circle class="cls-1" cx="600.07" cy="400" r="25"/>
  <circle class="cls-1" cx="600.07" cy="500" r="25"/>
  <circle class="cls-1" cx="600.07" cy="600" r="25"/>
  <circle class="cls-1" cx="600.07" cy="700" r="25"/>
  <circle class="cls-1" cx="600.07" cy="800" r="25"/>
  <circle class="cls-1" cx="600.07" cy="900" r="25"/>
  <circle class="cls-1" cx="650.09" cy="50" r="25"/>
  <circle class="cls-1" cx="650.07" cy="150" r="25"/>
  <circle class="cls-1" cx="650.07" cy="250" r="25"/>
  <circle class="cls-1" cx="650.09" cy="450" r="25"/>
  <circle class="cls-1" cx="650.09" cy="550" r="25"/>
  <circle class="cls-1" cx="650.09" cy="350" r="25"/>
  <circle class="cls-1" cx="650.09" cy="750" r="25"/>
  <circle class="cls-1" cx="650.09" cy="850" r="25"/>
  <circle class="cls-1" cx="650.09" cy="650" r="25"/>
  <circle class="cls-1" cx="700.13" cy="0" r="25"/>
  <circle class="cls-1" cx="700.13" cy="100" r="25"/>
  <circle class="cls-1" cx="700.13" cy="300" r="25"/>
  <circle class="cls-1" cx="700.11" cy="200" r="25"/>
  <circle class="cls-1" cx="700.13" cy="400" r="25"/>
  <circle class="cls-1" cx="700.13" cy="500" r="25"/>
  <circle class="cls-1" cx="700.13" cy="600" r="25"/>
  <circle class="cls-1" cx="700.13" cy="700" r="25"/>
  <circle class="cls-1" cx="700.13" cy="800" r="25"/>
  <circle class="cls-1" cx="700.13" cy="900" r="25"/>
  <circle class="cls-1" cx="750.13" cy="50" r="25"/>
  <circle class="cls-1" cx="750.11" cy="150" r="25"/>
  <circle class="cls-1" cx="750.11" cy="250" r="25"/>
  <circle class="cls-1" cx="750.13" cy="450" r="25"/>
  <circle class="cls-1" cx="750.13" cy="550" r="25"/>
  <circle class="cls-1" cx="750.13" cy="350" r="25"/>
  <circle class="cls-1" cx="750.13" cy="750" r="25"/>
  <circle class="cls-1" cx="750.13" cy="850" r="25"/>
  <circle class="cls-1" cx="750.13" cy="650" r="25"/>
  <circle class="cls-1" cx="800.15" cy="0" r="25"/>
  <circle class="cls-1" cx="800.15" cy="100" r="25"/>
  <circle class="cls-1" cx="800.15" cy="300" r="25"/>
  <circle class="cls-1" cx="800.13" cy="200" r="25"/>
  <circle class="cls-1" cx="800.15" cy="400" r="25"/>
  <circle class="cls-1" cx="800.15" cy="500" r="25"/>
  <circle class="cls-1" cx="800.15" cy="600" r="25"/>
  <circle class="cls-1" cx="800.15" cy="700" r="25"/>
  <circle class="cls-1" cx="800.15" cy="800" r="25"/>
  <circle class="cls-1" cx="800.15" cy="900" r="25"/>
  <circle class="cls-1" cx="850.19" cy="50" r="25"/>
  <circle class="cls-1" cx="850.17" cy="150" r="25"/>
  <circle class="cls-1" cx="850.17" cy="250" r="25"/>
  <circle class="cls-1" cx="850.19" cy="450" r="25"/>
  <circle class="cls-1" cx="850.19" cy="550" r="25"/>
  <circle class="cls-1" cx="850.19" cy="350" r="25"/>
  <circle class="cls-1" cx="850.19" cy="750" r="25"/>
  <circle class="cls-1" cx="850.19" cy="850" r="25"/>
  <circle class="cls-1" cx="850.19" cy="650" r="25"/>
  <circle class="cls-1" cx="900.07" cy="0" r="25"/>
  <circle class="cls-1" cx="900.07" cy="100" r="25"/>
  <circle class="cls-1" cx="900.07" cy="300" r="25"/>
  <circle class="cls-1" cx="900.05" cy="200" r="25"/>
  <circle class="cls-1" cx="900.07" cy="400" r="25"/>
  <circle class="cls-1" cx="900.07" cy="500" r="25"/>
  <circle class="cls-1" cx="900.07" cy="600" r="25"/>
  <circle class="cls-1" cx="900.07" cy="700" r="25"/>
  <circle class="cls-1" cx="900.07" cy="800" r="25"/>
  <circle class="cls-1" cx="900.07" cy="900" r="25"/>
  <circle class="cls-1" cx="950.09" cy="50" r="25"/>
  <circle class="cls-1" cx="950.07" cy="150" r="25"/>
  <circle class="cls-1" cx="950.07" cy="250" r="25"/>
  <circle class="cls-1" cx="950.09" cy="450" r="25"/>
  <circle class="cls-1" cx="950.09" cy="550" r="25"/>
  <circle class="cls-1" cx="950.09" cy="350" r="25"/>
  <circle class="cls-1" cx="950.09" cy="750" r="25"/>
  <circle class="cls-1" cx="950.09" cy="850" r="25"/>
  <circle class="cls-1" cx="950.09" cy="650" r="25"/>
  <circle class="cls-1" cx="1000.13" cy="0" r="25"/>
  <circle class="cls-1" cx="1000.13" cy="100" r="25"/>
  <circle class="cls-1" cx="1000.13" cy="300" r="25"/>
  <circle class="cls-1" cx="1000.11" cy="200" r="25"/>
  <circle class="cls-1" cx="1000.13" cy="400" r="25"/>
  <circle class="cls-1" cx="1000.13" cy="500" r="25"/>
  <circle class="cls-1" cx="1000.13" cy="600" r="25"/>
  <circle class="cls-1" cx="1000.13" cy="700" r="25"/>
  <circle class="cls-1" cx="1000.13" cy="800" r="25"/>
  <circle class="cls-1" cx="1000.13" cy="900" r="25"/>
  <circle class="cls-1" cx="1050.13" cy="50" r="25"/>
  <circle class="cls-1" cx="1050.11" cy="150" r="25"/>
  <circle class="cls-1" cx="1050.11" cy="250" r="25"/>
  <circle class="cls-1" cx="1050.13" cy="450" r="25"/>
  <circle class="cls-1" cx="1050.13" cy="550" r="25"/>
  <circle class="cls-1" cx="1050.13" cy="350" r="25"/>
  <circle class="cls-1" cx="1050.13" cy="750" r="25"/>
  <circle class="cls-1" cx="1050.13" cy="850" r="25"/>
  <circle class="cls-1" cx="1050.13" cy="650" r="25"/>
  <circle class="cls-1" cx="1100.15" cy="0" r="25"/>
  <circle class="cls-1" cx="1100.15" cy="100" r="25"/>
  <circle class="cls-1" cx="1100.15" cy="300" r="25"/>
  <circle class="cls-1" cx="1100.13" cy="200" r="25"/>
  <circle class="cls-1" cx="1100.15" cy="400" r="25"/>
  <circle class="cls-1" cx="1100.15" cy="500" r="25"/>
  <circle class="cls-1" cx="1100.15" cy="600" r="25"/>
  <circle class="cls-1" cx="1100.15" cy="700" r="25"/>
  <circle class="cls-1" cx="1100.15" cy="800" r="25"/>
  <circle class="cls-1" cx="1100.15" cy="900" r="25"/>
  <circle class="cls-1" cx="1150.19" cy="50" r="25"/>
  <circle class="cls-1" cx="1150.17" cy="150" r="25"/>
  <circle class="cls-1" cx="1150.17" cy="250" r="25"/>
  <circle class="cls-1" cx="1150.19" cy="450" r="25"/>
  <circle class="cls-1" cx="1150.19" cy="550" r="25"/>
  <circle class="cls-1" cx="1150.19" cy="350" r="25"/>
  <circle class="cls-1" cx="1150.19" cy="750" r="25"/>
  <circle class="cls-1" cx="1150.19" cy="850" r="25"/>
  <circle class="cls-1" cx="1150.19" cy="650" r="25"/>
  <circle class="cls-1" cx="1200.07" cy="0" r="25"/>
  <circle class="cls-1" cx="1200.07" cy="100" r="25"/>
  <circle class="cls-1" cx="1200.07" cy="300" r="25"/>
  <circle class="cls-1" cx="1200.05" cy="200" r="25"/>
  <circle class="cls-1" cx="1200.07" cy="400" r="25"/>
  <circle class="cls-1" cx="1200.07" cy="500" r="25"/>
  <circle class="cls-1" cx="1200.07" cy="600" r="25"/>
  <circle class="cls-1" cx="1200.07" cy="700" r="25"/>
  <circle class="cls-1" cx="1200.07" cy="800" r="25"/>
  <circle class="cls-1" cx="1200.07" cy="900" r="25"/>
  <circle class="cls-1" cx="1250.09" cy="50" r="25"/>
  <circle class="cls-1" cx="1250.07" cy="150" r="25"/>
  <circle class="cls-1" cx="1250.07" cy="250" r="25"/>
  <circle class="cls-1" cx="1250.09" cy="450" r="25"/>
  <circle class="cls-1" cx="1250.09" cy="550" r="25"/>
  <circle class="cls-1" cx="1250.09" cy="350" r="25"/>
  <circle class="cls-1" cx="1250.09" cy="750" r="25"/>
  <circle class="cls-1" cx="1250.09" cy="850" r="25"/>
  <circle class="cls-1" cx="1250.09" cy="650" r="25"/>
  <circle class="cls-1" cx="1300.13" cy="0" r="25"/>
  <circle class="cls-1" cx="1300.13" cy="100" r="25"/>
  <circle class="cls-1" cx="1300.13" cy="300" r="25"/>
  <circle class="cls-1" cx="1300.11" cy="200" r="25"/>
  <circle class="cls-1" cx="1300.13" cy="400" r="25"/>
  <circle class="cls-1" cx="1300.13" cy="500" r="25"/>
  <circle class="cls-1" cx="1300.13" cy="600" r="25"/>
  <circle class="cls-1" cx="1300.13" cy="700" r="25"/>
  <circle class="cls-1" cx="1300.13" cy="800" r="25"/>
  <circle class="cls-1" cx="1300.13" cy="900" r="25"/>
  <circle class="cls-1" cx="1350.13" cy="50" r="25"/>
  <circle class="cls-1" cx="1350.11" cy="150" r="25"/>
  <circle class="cls-1" cx="1350.11" cy="250" r="25"/>
  <circle class="cls-1" cx="1350.13" cy="450" r="25"/>
  <circle class="cls-1" cx="1350.13" cy="550" r="25"/>
  <circle class="cls-1" cx="1350.13" cy="350" r="25"/>
  <circle class="cls-1" cx="1350.13" cy="750" r="25"/>
  <circle class="cls-1" cx="1350.13" cy="850" r="25"/>
  <circle class="cls-1" cx="1350.13" cy="650" r="25"/>
  <circle class="cls-1" cx="1400.15" cy="0" r="25"/>
  <circle class="cls-1" cx="1400.15" cy="100" r="25"/>
  <circle class="cls-1" cx="1400.15" cy="300" r="25"/>
  <circle class="cls-1" cx="1400.13" cy="200" r="25"/>
  <circle class="cls-1" cx="1400.15" cy="400" r="25"/>
  <circle class="cls-1" cx="1400.15" cy="500" r="25"/>
  <circle class="cls-1" cx="1400.15" cy="600" r="25"/>
  <circle class="cls-1" cx="1400.15" cy="700" r="25"/>
  <circle class="cls-1" cx="1400.15" cy="800" r="25"/>
  <circle class="cls-1" cx="1400.15" cy="900" r="25"/>
  <circle class="cls-1" cx="1450.19" cy="50" r="25"/>
  <circle class="cls-1" cx="1450.17" cy="150" r="25"/>
  <circle class="cls-1" cx="1450.17" cy="250" r="25"/>
  <circle class="cls-1" cx="1450.19" cy="450" r="25"/>
  <circle class="cls-1" cx="1450.19" cy="550" r="25"/>
  <circle class="cls-1" cx="1450.19" cy="350" r="25"/>
  <circle class="cls-1" cx="1450.19" cy="750" r="25"/>
  <circle class="cls-1" cx="1450.19" cy="850" r="25"/>
  <circle class="cls-1" cx="1450.19" cy="650" r="25"/>
  <circle class="cls-1" cx="1500.07" cy="0" r="25"/>
  <circle class="cls-1" cx="1500.07" cy="100" r="25"/>
  <circle class="cls-1" cx="1500.07" cy="300" r="25"/>
  <circle class="cls-1" cx="1500.05" cy="200" r="25"/>
  <circle class="cls-1" cx="1500.07" cy="400" r="25"/>
  <circle class="cls-1" cx="1500.07" cy="500" r="25"/>
  <circle class="cls-1" cx="1500.07" cy="600" r="25"/>
  <circle class="cls-1" cx="1500.07" cy="700" r="25"/>
  <circle class="cls-1" cx="1500.07" cy="800" r="25"/>
  <circle class="cls-1" cx="1500.07" cy="900" r="25"/>
  <circle class="cls-1" cx="1550.09" cy="50" r="25"/>
  <circle class="cls-1" cx="1550.07" cy="150" r="25"/>
  <circle class="cls-1" cx="1550.07" cy="250" r="25"/>
  <circle class="cls-1" cx="1550.09" cy="450" r="25"/>
  <circle class="cls-1" cx="1550.09" cy="550" r="25"/>
  <circle class="cls-1" cx="1550.09" cy="350" r="25"/>
  <circle class="cls-1" cx="1550.09" cy="750" r="25"/>
  <circle class="cls-1" cx="1550.09" cy="850" r="25"/>
  <circle class="cls-1" cx="1550.09" cy="650" r="25"/>
  <circle class="cls-1" cx="1600.13" cy="0" r="25"/>
  <circle class="cls-1" cx="1600.13" cy="100" r="25"/>
  <circle class="cls-1" cx="1600.13" cy="300" r="25"/>
  <circle class="cls-1" cx="1600.11" cy="200" r="25"/>
  <circle class="cls-1" cx="1600.13" cy="400" r="25"/>
  <circle class="cls-1" cx="1600.13" cy="500" r="25"/>
  <circle class="cls-1" cx="1600.13" cy="600" r="25"/>
  <circle class="cls-1" cx="1600.13" cy="700" r="25"/>
  <circle class="cls-1" cx="1600.13" cy="800" r="25"/>
  <circle class="cls-1" cx="1600.13" cy="900" r="25"/>
</svg>