<?xml version="1.0" encoding="UTF-8"?>
<svg id="Squares" xmlns="http://www.w3.org/2000/svg" viewBox="0 0 1600 900">
  <defs>
    <style>
      .cls-1 {
        fill: #231f20;
        opacity: .05;
      }
    </style>
  </defs>
  <rect class="cls-1" width="185.34" height="185.34"/>
  <rect class="cls-1" x="277.21" y="370.01" width="325.49" height="325.49"/>
  <rect class="cls-1" x="531.81" y="176.71" width="100.75" height="100.75"/>
  <rect class="cls-1" x="92.66" y="280.84" width="92.68" height="92.68"/>
  <rect class="cls-1" x="837.12" y="395.64" width="185.99" height="185.99"/>
  <rect class="cls-1" x="707.31" y="40.04" width="290.61" height="290.61"/>
  <rect class="cls-1" x="277.21" y="105.03" width="162.74" height="162.74"/>
  <rect class="cls-1" y="450" width="185.34" height="185.34"/>
  <rect class="cls-1" y="773.44" width="126.56" height="126.56"/>
  <rect class="cls-1" x="204.14" y="822.43" width="77.57" height="77.57"/>
  <rect class="cls-1" x="718.94" y="706.26" width="193.74" height="193.74"/>
  <rect class="cls-1" x="1158.73" y="227.09" width="339.05" height="339.05"/>
  <rect class="cls-1" x="1087.04" y="92.67" width="71.68" height="71.68"/>
  <rect class="cls-1" x="1274.97" width="154.99" height="154.99"/>
  <rect class="cls-1" x="463.64" y="773.44" width="126.56" height="126.56"/>
  <rect class="cls-1" x="689.87" y="450" width="85.13" height="85.13"/>
  <rect class="cls-1" x="1366.03" y="666.03" width="233.97" height="233.97"/>
  <rect class="cls-1" x="1023.11" y="794.09" width="105.91" height="105.91"/>
  <rect class="cls-1" x="1133.23" y="634.26" width="106.56" height="106.56"/>
  <rect class="cls-1" x="1522.5" width="77.5" height="77.5"/>
  <rect class="cls-1" x="501.95" y="41.65" width="71.68" height="71.68"/>
</svg>