<?xml version="1.0" encoding="UTF-8"?>
<svg xmlns="http://www.w3.org/2000/svg" viewBox="0 0 512 512">
  <defs>
    <style>
      .cls-1 {
        fill: none;
        opacity: .65;
        stroke-width: 20px;
      }

      .cls-1, .cls-2 {
        stroke: #231f20;
        stroke-linecap: round;
        stroke-linejoin: round;
      }

      .cls-2 {
        fill: #231f20;
        opacity: .25;
        stroke-width: 10px;
      }
    </style>
  </defs>
  <g id="Hollow_Icon" data-name="Hollow Icon">
    <path class="cls-2" d="m100.35,124.02c-28.77,0-57.55,0-86.32,0v29.31s192.86,0,192.86,0v-29.31c-20.94,0-41.88,0-62.82,0-11.19-8.4-26.51-21.93-40.25-42.05-10.97-16.06-17.52-31.32-21.51-43.03-8.56,3.26-17.12,6.53-25.68,9.79,3.59,10.05,8.38,21.33,14.83,33.25,9.39,17.38,19.71,31.32,28.9,42.03Z"/>
    <rect class="cls-2" x="38.2" y="196.02" width="151.72" height="28.29"/>
    <rect class="cls-2" x="38.2" y="266.99" width="151.72" height="28.29"/>
    <path class="cls-2" d="m36.64,337.97v146.54h151.72v-146.54H36.64Zm119.36,118.26h-89.73v-89.73h89.73v89.73Z"/>
    <path class="cls-2" d="m497.97,224.82v-30.86h-126.52v-98.07c13.14-2.69,26.64-5.7,40.47-9.09,21.01-5.14,40.99-10.71,59.91-16.51-8.43-8.84-16.86-17.67-25.3-26.5-27.52,7.7-56.82,14.99-87.81,21.55-41.82,8.85-81.49,15.25-118.51,19.84,1.51,3.59,3.05,8.01,4.19,13.17,1.31,5.95,1.74,11.26,1.8,15.57,13.75-1.21,27.92-2.7,42.48-4.52,16.53-2.06,32.46-4.41,47.79-6.98v91.54h-126.06v32.4h126.06v86.4h-93.6v174.86h228.96v-174.86h-100.38v-87.94h126.52Zm-58.44,121.98v107.07h-164.11v-107.07h164.11Z"/>
  </g>
  <g id="Cursive_F" data-name="Cursive F">
    <g>
      <path class="cls-1" d="m82.47,73.72c5.17,10.12,12.91,22.76,24.37,35.59,15.9,17.8,32.61,28.87,44.58,35.47"/>
      <path class="cls-1" d="m64.36,237.02c12.58-5.07,25.95-11.01,39.9-17.97,14.02-7.01,26.86-14.18,38.51-21.23-8.16,20.42-17.22,48.76-21.47,83.36-2.38,19.37-15.28,124.55,21.47,142.53,37.59,18.39,110.17-62.72,160.96-119.48,54.52-60.92,111.17-126.03,109.73-212.82-.48-29.28-7.72-69.53-17.74-70.01-34.18-1.63-108.37,459.46-71.87,469.06,16.11,4.23,68.9-78,53.21-154.49-17.71-86.36-118.9-146.88-128.63-138.15-5.93,5.32,11.83,45.62,43.68,62.54,51.23,27.21,119.12-16.59,130.68-24.27"/>
    </g>
  </g>
</svg>