<?xml version="1.0" encoding="UTF-8"?>
<svg id="Layer_1" data-name="Layer 1" xmlns="http://www.w3.org/2000/svg" viewBox="0 0 1600 900">
  <defs>
    <style>
      .cls-1 {
        fill: #231f20;
        opacity: .05;
      }
    </style>
  </defs>
  <path class="cls-1" d="m0,310.59c47.35,15.87,118.18,9.59,143.97-28.23,22.84-33.49-6.47-67.05,17.37-104.24,28.76-44.87,88.47-22.62,117.28-58.64,39.2-49.01,2.05-181.95-86.87-234.55C92-174.08-61.32-125.15-118.81-15.18-185.22,111.83-101.03,276.73,0,310.59Z"/>
  <path class="cls-1" d="m-189.32,468.9c35.85-23.36,69.17,5.53,140.61-17.41,38.71-12.43,42.96-25.42,79.01-42.85,54.03-26.12,155.35-50.55,211.58-8.03,93.94,71.03,24.98,300.98-21.43,305.31-28.19,2.63-38.07-78.96-95.08-88.38-40.97-6.77-58.33,31.67-117.84,53.56-72.56,26.7-188.04,21.55-226.31-45.53-28.2-49.44-12.6-129.26,29.46-156.67Z"/>
  <path class="cls-1" d="m-208.07,938.92c-14.56-30.52,85.56-136.22,215.59-162.03,86.11-17.09,228.49-7.72,269.16,80.35,28.37,61.45,3.35,152.8-41.51,168.73-40.45,14.36-68.36-42.79-151.32-77.67-145.35-61.11-276.39,23.18-291.92-9.37Z"/>
  <path class="cls-1" d="m600.29-85.49c-9.12,46.57,5.85,103.4,17.41,147.3,10.55,40.04,29.83,113.26,66.29,124.54,3.2.99,31.05,8.82,50.22-24.1,13.61-23.38,10.82-46.67,22.1-57.58,19.86-19.22,41.25,40.72,57.58,28.12,21.7-16.75,31.95-159.68,0-241.04-49.64-126.4-192.86-83.03-213.59,22.76Z"/>
  <path class="cls-1" d="m955.6-102.89c-13.72,61.6,42.85,82.85,40.17,164.71-2.72,83.26-62.48,99.53-54.9,166.05,6.93,60.89,66.16,127.65,143.28,135.25,76.23,7.52,153.21-44.41,163.37-100.43,7.92-43.69-31.06-55.39-38.83-116.5-11.13-87.48,62.04-116.28,57.58-196.85-3.9-70.44-66.03-160.39-154-164.71-72.86-3.58-143.33,52.59-156.67,112.48Z"/>
  <path class="cls-1" d="m590.54,327.51c-35.34-25.18-56.35-3.9-112.35-36.31-52.13-30.17-54.23-60.38-91.65-67.43-44.81-8.45-100.98,23.69-107.91,63.97-6.65,38.65,37.37,53.79,70.95,131.41,37.77,87.29,8.57,129.3,39.91,169.45,50.58,64.79,212.89,65.91,257.21-44.96,30.2-75.53-3.99-178.95-56.17-216.13Z"/>
  <path class="cls-1" d="m767.93,233.92c-19.21,16.34-34.59,10.54-45.83,26.61-14.24,20.36-3.7,49.94-1.48,56.17,10.65,29.88,43.16,66.23,85.74,62.09,42.94-4.18,66.86-46.71,72.43-76.87,12.36-66.93-54.81-131.64-78.35-124.17-14.28,4.53-5.96,33.57-32.52,56.17Z"/>
  <path class="cls-1" d="m875.84,683.3c-19.45-2.9-115.15-20.09-136-91.65-7.4-25.41-7.4-64.64,14.78-91.65,33.35-40.62,88.08-18.62,125.65-65.04,20.43-25.24,12.46-41.88,29.56-50.26,35.05-17.16,102.64,36.03,137.48,93.13,16.28,26.68,43.82,71.82,29.56,118.26-21.77,70.92-126.72,98.28-201.04,87.22Z"/>
  <path class="cls-1" d="m600.31,814.51c-9.19,46.57,5.89,103.4,17.53,147.3,10.62,40.04,30.04,113.26,66.74,124.54,3.22.99,31.27,8.82,50.56-24.1,13.7-23.38,10.9-46.67,22.25-57.58,19.99-19.22,41.54,40.72,57.98,28.12,21.85-16.75,32.17-159.68,0-241.04-49.98-126.4-194.18-83.03-215.05,22.76Z"/>
  <path class="cls-1" d="m957.23,797.11c-13.72,61.6,42.85,82.85,40.17,164.71-2.72,83.26-62.48,99.53-54.9,166.05,6.93,60.89,66.16,127.65,143.28,135.25,76.23,7.52,153.21-44.41,163.37-100.43,7.92-43.69-31.06-55.39-38.83-116.5-11.13-87.48,62.04-116.28,57.58-196.85-3.9-70.44-66.03-160.39-154-164.71-72.86-3.58-143.33,52.59-156.67,112.48Z"/>
  <path class="cls-1" d="m1599.22,310.59c47.35,15.87,118.18,9.59,143.97-28.23,22.84-33.49-6.47-67.05,17.37-104.24,28.76-44.87,88.47-22.62,117.28-58.64,39.2-49.01,2.05-181.95-86.87-234.55-99.75-59-253.07-10.07-310.56,99.9-66.4,127.01,17.79,291.91,118.81,325.77Z"/>
  <path class="cls-1" d="m1409.9,468.9c35.85-23.36,69.17,5.53,140.61-17.41,38.71-12.43,42.96-25.42,79.01-42.85,54.03-26.12,155.35-50.55,211.58-8.03,93.94,71.03,24.98,300.98-21.43,305.31-28.19,2.63-38.07-78.96-95.08-88.38-40.97-6.77-58.33,31.67-117.84,53.56-72.56,26.7-188.04,21.55-226.31-45.53-28.2-49.44-12.6-129.26,29.46-156.67Z"/>
  <path class="cls-1" d="m1391.15,938.92c-14.56-30.52,85.56-136.22,215.59-162.03,86.11-17.09,228.49-7.72,269.16,80.35,28.37,61.45,3.35,152.8-41.51,168.73-40.45,14.36-68.36-42.79-151.32-77.67-145.35-61.11-276.39,23.18-291.92-9.37Z"/>
  <path class="cls-1" d="m1231.29,636.42c-62.49-15.07-83.06-87.94-88.24-106.29-6.59-23.34-13.89-49.22,0-72.19,19.84-32.81,72.56-42.61,102.27-24.06,12.74,7.96,16.41,18.1,30.08,50.13,43.53,101.99,54.65,112.27,46.12,128.34-13.64,25.71-59.14,31.56-90.24,24.06Z"/>
  <path class="cls-1" d="m1395.73,407.81c-59.6,1.14-90.96-74.3-94.25-82.22-29.99-72.14.64-161.44,28.08-164.44,19.1-2.09,21.79,39.28,74.2,82.22,45.42,37.22,74.12,31.32,82.22,56.15,12.11,37.1-33.38,107.2-90.24,108.29Z"/>
  <path class="cls-1" d="m353.45-59.39c-8.18,63.41,30.06,117.41,58.06,156.95,36.03,50.88,102.85,115.61,129.77,91.42,16.84-15.12,3.98-52.34-3.42-182.84-7.91-139.67,2.61-171.34-17.08-189.53-39.85-36.82-154.77,26.55-167.34,123.99Z"/>
  <path class="cls-1" d="m353.45,840.5c-8.18,63.41,30.06,117.41,58.06,156.95,36.03,50.88,102.85,115.61,129.77,91.42,16.84-15.12,3.98-52.34-3.42-182.84-7.91-139.67,2.61-171.34-17.08-189.53-39.85-36.82-154.77,26.55-167.34,123.99Z"/>
</svg>